# xmcd CD database file
#
# Track frame offsets:
#	150
#	9736
#	27233
#	54941
#	77667
#	108428
#	124725
#	149010
#	170157
#	203760
#	224807
#	255423
#	280901
#
# Disc length: 4055 seconds
#
# Revision: 0
# Processed by: cddbd v1.5.2PL0 Copyright (c) Steve Scherf et al.
# Submitted via: CDex 1.51
#
DISCID=c10fd50d
DTITLE=Anson Funderburgh Otis Grand and Debbie Davies - Grand Union
DYEAR=1998
DGENRE=Blues
TTITLE0=Guitars On Fire
TTITLE1=There Was A Time
TTITLE2=Holding You Up For Love
TTITLE3=The Things I´d Do For You
TTITLE4=Bone Tunes
TTITLE5=I Got Eyes
TTITLE6=Dan´t Talk About Me
TTITLE7=Westside Bossman
TTITLE8=TC Rules
TTITLE9=Rockin´ Daddy
TTITLE10=Country Girl
TTITLE11=A Little Too Lae
TTITLE12=The Big Prayer
EXTD=YEAR: 1998
EXTT0=
EXTT1=
EXTT2=
EXTT3=
EXTT4=
EXTT5=
EXTT6=
EXTT7=
EXTT8=
EXTT9=
EXTT10=
EXTT11=
EXTT12=
PLAYORDER=
